<svg width="1940" height="343" viewBox="0 0 1940 343" fill="none" xmlns="http://www.w3.org/2000/svg">
<g clip-path="url(#clip0_443_857)">
<rect width="1940" height="343" fill="white"/>
<rect x="-3.8999" width="80.3148" height="20.5514" rx="3" fill="#E14646" fill-opacity="0.3"/>
<path d="M3.75297 14V3.81818H7.19332C7.98877 3.81818 8.64171 3.95407 9.15212 4.22585C9.66254 4.49432 10.0404 4.86387 10.2856 5.33452C10.5309 5.80516 10.6535 6.34044 10.6535 6.94034C10.6535 7.54025 10.5309 8.07221 10.2856 8.53622C10.0404 9.00024 9.6642 9.36482 9.15709 9.62997C8.64999 9.89181 8.00203 10.0227 7.2132 10.0227H4.42911V8.90909H7.17343C7.71699 8.90909 8.15449 8.82955 8.48593 8.67045C8.82068 8.51136 9.06263 8.28598 9.21178 7.99432C9.36424 7.69934 9.44047 7.34801 9.44047 6.94034C9.44047 6.53267 9.36424 6.17637 9.21178 5.87145C9.05932 5.56652 8.81571 5.3312 8.48096 5.16548C8.1462 4.99645 7.70373 4.91193 7.15354 4.91193H4.98593V14H3.75297ZM8.54559 9.42614L11.0513 14H9.61945L7.15354 9.42614H8.54559ZM15.6686 14.1591C14.9328 14.1591 14.2981 13.9967 13.7645 13.6719C13.2342 13.3438 12.8249 12.8864 12.5365 12.2997C12.2515 11.7098 12.109 11.0237 12.109 10.2415C12.109 9.45928 12.2515 8.76989 12.5365 8.1733C12.8249 7.57339 13.2259 7.10606 13.7397 6.77131C14.2567 6.43324 14.8599 6.2642 15.5493 6.2642C15.947 6.2642 16.3398 6.33049 16.7276 6.46307C17.1154 6.59564 17.4684 6.81108 17.7865 7.10938C18.1047 7.40436 18.3583 7.79545 18.5472 8.28267C18.7361 8.76989 18.8306 9.36979 18.8306 10.0824V10.5795H12.9442V9.56534H17.6374C17.6374 9.13447 17.5512 8.75 17.3789 8.41193C17.2098 8.07386 16.9679 7.80705 16.653 7.61151C16.3415 7.41596 15.9736 7.31818 15.5493 7.31818C15.082 7.31818 14.6776 7.43419 14.3362 7.66619C13.9982 7.89489 13.738 8.19318 13.5557 8.56108C13.3734 8.92898 13.2823 9.32339 13.2823 9.74432V10.4205C13.2823 10.9972 13.3817 11.486 13.5806 11.8871C13.7827 12.2848 14.0628 12.5881 14.4208 12.7969C14.7787 13.0024 15.1947 13.1051 15.6686 13.1051C15.9769 13.1051 16.2553 13.062 16.5039 12.9759C16.7558 12.8864 16.9728 12.7538 17.1551 12.5781C17.3374 12.3991 17.4783 12.1771 17.5777 11.9119L18.7112 12.2301C18.5919 12.6146 18.3914 12.9527 18.1097 13.2443C17.828 13.5327 17.48 13.758 17.0657 13.9205C16.6514 14.0795 16.1857 14.1591 15.6686 14.1591ZM23.4989 14.1591C22.8625 14.1591 22.3007 13.9983 21.8135 13.6768C21.3263 13.352 20.9451 12.8946 20.6701 12.3047C20.395 11.7114 20.2574 11.0104 20.2574 10.2017C20.2574 9.39962 20.395 8.7036 20.6701 8.11364C20.9451 7.52367 21.328 7.06794 21.8185 6.74645C22.309 6.42495 22.8758 6.2642 23.5188 6.2642C24.0159 6.2642 24.4087 6.34706 24.697 6.51278C24.9887 6.67519 25.2108 6.8608 25.3632 7.0696C25.519 7.27509 25.64 7.44413 25.7262 7.5767H25.8256V3.81818H26.9989V14H25.8654V12.8267H25.7262C25.64 12.9659 25.5174 13.1416 25.3583 13.3537C25.1992 13.5625 24.9721 13.7498 24.6772 13.9155C24.3822 14.0779 23.9894 14.1591 23.4989 14.1591ZM23.658 13.1051C24.1286 13.1051 24.5264 12.9825 24.8512 12.7372C25.176 12.4886 25.4229 12.1456 25.5919 11.7081C25.761 11.2673 25.8455 10.7585 25.8455 10.1818C25.8455 9.61174 25.7626 9.11293 25.5969 8.68537C25.4312 8.2545 25.1859 7.91974 24.8611 7.68111C24.5363 7.43916 24.1353 7.31818 23.658 7.31818C23.1608 7.31818 22.7465 7.44579 22.4151 7.70099C22.087 7.95289 21.84 8.29593 21.6743 8.73011C21.5119 9.16098 21.4307 9.64489 21.4307 10.1818C21.4307 10.7254 21.5136 11.2192 21.6793 11.6634C21.8483 12.1042 22.0969 12.4555 22.425 12.7173C22.7565 12.9759 23.1675 13.1051 23.658 13.1051ZM36.5692 6.36364V7.35795H32.6118V6.36364H36.5692ZM33.7652 4.53409H34.9385V11.8125C34.9385 12.1439 34.9866 12.3925 35.0827 12.5582C35.1821 12.7206 35.3081 12.83 35.4605 12.8864C35.6163 12.9394 35.7804 12.9659 35.9527 12.9659C36.082 12.9659 36.188 12.9593 36.2709 12.946C36.3538 12.9295 36.4201 12.9162 36.4698 12.9062L36.7084 13.9602C36.6289 13.9901 36.5178 14.0199 36.3753 14.0497C36.2328 14.0829 36.0522 14.0994 35.8334 14.0994C35.502 14.0994 35.1772 14.0282 34.859 13.8857C34.5441 13.7431 34.2823 13.526 34.0735 13.2344C33.868 12.9427 33.7652 12.5748 33.7652 12.1307V4.53409ZM40.5813 14.179C40.0974 14.179 39.6582 14.0878 39.2638 13.9055C38.8694 13.7199 38.5562 13.4531 38.3242 13.1051C38.0922 12.7538 37.9762 12.3295 37.9762 11.8324C37.9762 11.3949 38.0623 11.0402 38.2347 10.7685C38.407 10.4934 38.6374 10.2779 38.9257 10.1222C39.2141 9.96638 39.5323 9.85038 39.8803 9.77415C40.2316 9.6946 40.5846 9.63163 40.9392 9.58523C41.4032 9.52557 41.7794 9.48082 42.0678 9.45099C42.3594 9.41785 42.5716 9.36316 42.7041 9.28693C42.84 9.2107 42.908 9.07812 42.908 8.8892V8.84943C42.908 8.3589 42.7737 7.97775 42.5053 7.70597C42.2401 7.43419 41.8374 7.2983 41.2972 7.2983C40.7371 7.2983 40.2979 7.42093 39.9797 7.66619C39.6615 7.91146 39.4378 8.1733 39.3085 8.4517L38.1949 8.05398C38.3938 7.58996 38.6589 7.22869 38.9904 6.97017C39.3251 6.70833 39.6897 6.52604 40.0841 6.4233C40.4818 6.31723 40.8729 6.2642 41.2574 6.2642C41.5027 6.2642 41.7844 6.29403 42.1026 6.35369C42.4241 6.41004 42.734 6.5277 43.0323 6.70668C43.3339 6.88565 43.5841 7.15578 43.783 7.51705C43.9818 7.87831 44.0813 8.36222 44.0813 8.96875V14H42.908V12.9659H42.8483C42.7688 13.1316 42.6362 13.3089 42.4506 13.4979C42.265 13.6868 42.0181 13.8475 41.7098 13.9801C41.4016 14.1127 41.0254 14.179 40.5813 14.179ZM40.7603 13.125C41.2243 13.125 41.6154 13.0339 41.9335 12.8516C42.255 12.6693 42.497 12.4339 42.6594 12.1456C42.8251 11.8572 42.908 11.554 42.908 11.2358V10.1619C42.8583 10.2216 42.7489 10.2763 42.5799 10.326C42.4141 10.3724 42.2219 10.4138 42.0032 10.4503C41.7877 10.4834 41.5773 10.5133 41.3718 10.5398C41.1696 10.563 41.0055 10.5829 40.8796 10.5994C40.5746 10.6392 40.2896 10.7038 40.0245 10.7933C39.7626 10.8795 39.5505 11.0104 39.3881 11.1861C39.229 11.3584 39.1495 11.5937 39.1495 11.892C39.1495 12.2997 39.3003 12.608 39.6019 12.8168C39.9068 13.0223 40.2929 13.125 40.7603 13.125ZM49.3052 17.0227C48.7384 17.0227 48.2512 16.9498 47.8435 16.804C47.4359 16.6615 47.0961 16.4725 46.8244 16.2372C46.5559 16.0052 46.3421 15.7566 46.183 15.4915L47.1177 14.8352C47.2237 14.9744 47.358 15.1335 47.5204 15.3125C47.6828 15.4948 47.9048 15.6522 48.1866 15.7848C48.4716 15.9207 48.8445 15.9886 49.3052 15.9886C49.9217 15.9886 50.4304 15.8395 50.8315 15.5412C51.2325 15.2429 51.433 14.7756 51.433 14.1392V12.5881H51.3336C51.2474 12.7273 51.1248 12.8996 50.9657 13.1051C50.8099 13.3073 50.5845 13.4879 50.2896 13.647C49.9979 13.8028 49.6035 13.8807 49.1063 13.8807C48.4898 13.8807 47.9363 13.7348 47.4458 13.4432C46.9586 13.1515 46.5725 12.7273 46.2874 12.1705C46.0057 11.6136 45.8648 10.9375 45.8648 10.142C45.8648 9.35985 46.0024 8.67874 46.2775 8.09872C46.5526 7.51539 46.9354 7.06463 47.4259 6.74645C47.9164 6.42495 48.4832 6.2642 49.1262 6.2642C49.6234 6.2642 50.0178 6.34706 50.3094 6.51278C50.6044 6.67519 50.8298 6.8608 50.9856 7.0696C51.1447 7.27509 51.2673 7.44413 51.3535 7.5767H51.4728V6.36364H52.6063V14.2188C52.6063 14.875 52.4572 15.4086 52.1589 15.8196C51.8639 16.2339 51.4662 16.5372 50.9657 16.7294C50.4685 16.925 49.915 17.0227 49.3052 17.0227ZM49.2654 12.8267C49.736 12.8267 50.1338 12.719 50.4586 12.5036C50.7834 12.2881 51.0303 11.9782 51.1994 11.5739C51.3684 11.1695 51.4529 10.6856 51.4529 10.1222C51.4529 9.57197 51.37 9.08641 51.2043 8.66548C51.0386 8.24455 50.7933 7.91477 50.4685 7.67614C50.1437 7.4375 49.7427 7.31818 49.2654 7.31818C48.7682 7.31818 48.3539 7.44413 48.0225 7.69602C47.6944 7.94792 47.4475 8.28598 47.2817 8.71023C47.1193 9.13447 47.0381 9.60511 47.0381 10.1222C47.0381 10.6525 47.121 11.1214 47.2867 11.5291C47.4557 11.9335 47.7043 12.2517 48.0324 12.4837C48.3639 12.7124 48.7749 12.8267 49.2654 12.8267Z" fill="#37352F"/>
<path d="M-4 0H1944V343H-4V0Z" fill="#CCFFE2"/>
<path fill-rule="evenodd" clip-rule="evenodd" d="M1943.55 237.166V343H475.379C535.532 293.689 599.915 248.214 668.419 207.174C1082.63 -40.9782 1540.57 29.3675 1943.55 237.166Z" fill="#FFECEA"/>
<path fill-rule="evenodd" clip-rule="evenodd" d="M1373.87 169.08C1373.93 113.585 1408.92 58.5252 1467.21 46.2886C1518.96 35.4249 1554.8 83.747 1584.16 124.933C1611.76 163.654 1640.07 210.579 1611.16 248.223C1579.64 289.281 1518.29 294.69 1466.96 277.572C1415.17 260.296 1373.82 220.063 1373.87 169.08Z" fill="#0018A4"/>
<path fill-rule="evenodd" clip-rule="evenodd" d="M135.668 64.0355C166.613 63.0843 197.932 81.711 205.784 114.146C212.755 142.942 186.443 163.876 163.996 181.054C142.892 197.204 117.226 213.893 95.7253 198.369C72.2753 181.438 68.1762 147.165 76.8156 118.11C85.5343 88.7876 107.239 64.9093 135.668 64.0355Z" fill="white"/>
<rect x="-4" width="1944" height="100" fill="#0018A4"/>
<path d="M-34.8427 33.3V51.709C-34.8427 57.613 -39.7627 62.492 -45.7487 62.492C-51.7347 62.492 -56.6547 57.654 -56.6547 51.709V33.3H-55.9987V51.709C-55.9987 57.326 -51.4067 61.836 -45.7487 61.836C-40.0907 61.836 -35.4987 57.285 -35.4987 51.709V33.3H-34.8427ZM-40.4187 33.3V51.709C-40.4187 54.497 -42.8377 56.916 -45.7487 56.916C-48.6597 56.916 -51.0787 54.497 -51.0787 51.709V33.3H-50.4227V51.709C-50.4227 54.169 -48.3317 56.26 -45.7487 56.26C-43.1657 56.26 -41.0747 54.169 -41.0747 51.709V33.3H-40.4187ZM-31.8193 46.953C-31.8193 42.976 -28.6213 39.778 -24.6443 39.778C-21.6923 39.778 -19.1503 41.582 -18.0433 44.124L-18.6583 44.411C-19.6423 42.074 -21.9793 40.434 -24.6443 40.434C-28.2523 40.434 -31.1633 43.345 -31.1633 46.953C-31.1633 50.028 -29.0723 52.57 -26.2023 53.308L-24.3983 53.759C-23.7013 53.923 -23.2093 54.579 -23.2093 55.317C-23.2093 56.219 -23.9063 56.916 -24.8083 56.916C-25.5053 56.916 -26.0793 56.506 -26.3253 55.85L-25.7103 55.604C-25.5873 55.973 -25.2593 56.26 -24.8083 56.26C-24.2753 56.26 -23.8653 55.85 -23.8653 55.317C-23.8653 54.866 -24.1113 54.497 -24.5623 54.374L-26.4073 53.923C-29.5233 53.144 -31.8193 50.315 -31.8193 46.953ZM-31.4093 58.187L-30.7943 57.9C-29.8103 60.237 -27.5143 61.836 -24.8083 61.836C-21.2003 61.836 -18.2893 58.925 -18.2893 55.317C-18.2893 52.242 -20.3803 49.7 -23.2503 48.962L-25.0543 48.511C-25.7923 48.306 -26.2433 47.691 -26.2433 46.953C-26.2433 46.051 -25.5463 45.354 -24.6443 45.354C-23.9473 45.354 -23.3733 45.805 -23.1683 46.42L-23.7423 46.666C-23.8653 46.297 -24.2343 46.01 -24.6443 46.01C-25.1773 46.01 -25.5873 46.42 -25.5873 46.953C-25.5873 47.404 -25.3413 47.773 -24.8903 47.896L-23.0453 48.347C-19.8883 49.126 -17.6333 51.955 -17.6333 55.317C-17.6333 59.294 -20.8313 62.492 -24.8083 62.492C-27.7603 62.492 -30.3023 60.729 -31.4093 58.187ZM-15.6493 51.135C-15.6493 44.862 -10.5653 39.778 -4.29225 39.778C0.709747 39.778 4.93275 42.976 6.44975 47.486L-6.87525 55.563C-6.09625 56.014 -5.23525 56.26 -4.29225 56.26C-2.24225 56.26 -0.479253 55.03 0.340747 53.308L0.955747 53.595C0.0537467 55.563 -1.95525 56.916 -4.29225 56.916C-5.48125 56.916 -6.58825 56.547 -7.49025 55.932L-11.9183 58.638C-9.99125 60.606 -7.28525 61.836 -4.29225 61.836C-0.0282535 61.836 3.70275 59.294 5.42475 55.645L5.99875 55.932C4.19475 59.827 0.258746 62.492 -4.29225 62.492C-10.5653 62.492 -15.6493 57.408 -15.6493 51.135ZM-14.9933 51.135C-14.9933 52.324 -14.7883 53.431 -14.4603 54.497L-10.0323 51.791C-10.0733 51.586 -10.0733 51.34 -10.0733 51.135C-10.0733 47.937 -7.49025 45.354 -4.29225 45.354C-3.10325 45.354 -1.95525 45.723 -1.05325 46.338L3.33375 43.673C1.40675 41.664 -1.29925 40.434 -4.29225 40.434C-10.1963 40.434 -14.9933 45.231 -14.9933 51.135ZM-14.2143 55.112C-13.7633 56.219 -13.1483 57.244 -12.3693 58.146L-8.06425 55.522C-8.96625 54.743 -9.62225 53.677 -9.90925 52.488L-14.2143 55.112ZM-9.41725 51.135V51.422L-1.66825 46.707C-2.44725 46.256 -3.34925 46.01 -4.29225 46.01C-7.12125 46.01 -9.41725 48.306 -9.41725 51.135ZM-9.33525 52.16C-9.08925 53.349 -8.39225 54.415 -7.44925 55.153L0.750747 50.151C0.504747 48.962 -0.151253 47.896 -1.09425 47.117L-9.33525 52.16ZM-0.479253 46.789C0.422747 47.568 1.07875 48.593 1.32475 49.823L5.67075 47.158C5.21975 46.051 4.56375 45.067 3.82575 44.165L-0.479253 46.789ZM7.74605 41.746C7.74605 36.826 11.7641 32.849 16.8481 32.849C20.7841 32.849 24.1051 35.268 25.3761 38.671L24.8021 38.917C23.6131 35.719 20.4971 33.423 16.8481 33.464C12.1741 33.505 8.36105 37.154 8.40205 41.746C8.44305 45.6 11.0671 48.88 14.7161 49.7L17.6681 50.356C19.1441 50.684 20.2511 52.037 20.2511 53.554C20.2511 55.399 18.6931 56.875 16.7251 56.875C15.0441 56.875 13.6501 55.768 13.2811 54.292L13.8961 54.005C14.1421 55.276 15.2901 56.301 16.7251 56.26C18.3241 56.219 19.5541 55.03 19.5951 53.554C19.6361 52.324 18.7341 51.258 17.4631 50.971L14.5931 50.356C10.5751 49.495 7.74605 45.887 7.74605 41.746ZM8.15605 56.629L8.77105 56.342C9.91905 59.581 13.0351 61.877 16.7251 61.836C21.3991 61.795 25.2121 58.146 25.1711 53.554C25.1301 49.7 22.5061 46.42 18.8571 45.6L15.9051 44.944C14.4291 44.616 13.3221 43.263 13.3221 41.746C13.3221 39.901 14.8801 38.425 16.8481 38.425C18.5291 38.425 19.9231 39.491 20.2511 40.967L19.6771 41.254C19.4311 39.983 18.2421 38.999 16.8481 39.04C15.2491 39.081 14.0191 40.27 13.9781 41.746C13.9371 42.976 14.8391 44.042 16.1101 44.329L18.9801 44.944C22.9981 45.805 25.8271 49.413 25.8271 53.554C25.8271 58.474 21.8091 62.451 16.7251 62.451C12.7481 62.451 9.42705 60.032 8.15605 56.629ZM30.6327 40.926H27.3937V40.27H30.6327V33.3H31.2887V40.27H36.2087V33.3H36.8647V40.27H40.1037V40.926H36.8647V45.846H40.1037V46.502H36.8647V62H36.2087V46.502H31.2887V62H30.6327V46.502H27.3937V45.846H30.6327V40.926ZM36.2087 40.926H31.2887V45.846H36.2087V40.926ZM58.5844 42.115V60.155C61.3315 58.474 63.5044 55.071 63.5044 51.135C63.5044 47.199 61.3315 43.796 58.5844 42.115ZM52.8034 39.778C54.6485 39.778 56.3705 40.229 57.9284 41.008V40.27H58.5844V41.377C60.8805 42.648 62.6435 44.944 63.5044 47.322V40.27H64.1605V62H63.5044V54.907C62.6845 57.244 60.8805 59.663 58.5844 60.934V62H57.9284V61.262C56.3705 62.041 54.6485 62.492 52.8034 62.492C46.5304 62.492 41.4464 57.408 41.4464 51.135C41.4464 44.862 46.5304 39.778 52.8034 39.778ZM52.8034 61.836C54.6485 61.836 56.4114 61.385 57.9284 60.565V53.841C56.9444 55.645 55.0175 56.916 52.8034 56.916C49.6054 56.916 47.0224 54.333 47.0224 51.135C47.0224 47.937 49.6054 45.354 52.8034 45.354C55.0175 45.354 56.9444 46.625 57.9284 48.47V41.746C56.4114 40.926 54.6485 40.434 52.8034 40.434C46.8994 40.434 42.1024 45.231 42.1024 51.135C42.1024 57.039 46.8994 61.836 52.8034 61.836ZM52.8034 56.26C55.6735 56.26 57.9284 53.964 57.9284 51.135C57.9284 48.306 55.6735 46.01 52.8034 46.01C49.9744 46.01 47.6784 48.306 47.6784 51.135C47.6784 53.964 49.9744 56.26 52.8034 56.26ZM70.3915 40.926H67.1525V40.27H70.3915V33.3H71.0475V40.27H75.9675V33.3H76.6235V40.27H79.8625V40.926H76.6235V45.846H79.8625V46.502H76.6235V62H75.9675V46.502H71.0475V62H70.3915V46.502H67.1525V45.846H70.3915V40.926ZM75.9675 40.926H71.0475V45.846H75.9675V40.926ZM81.2052 51.135C81.2052 44.862 86.2892 39.778 92.5622 39.778C97.5642 39.778 101.787 42.976 103.304 47.486L89.9792 55.563C90.7582 56.014 91.6192 56.26 92.5622 56.26C94.6122 56.26 96.3752 55.03 97.1952 53.308L97.8102 53.595C96.9082 55.563 94.8992 56.916 92.5622 56.916C91.3732 56.916 90.2662 56.547 89.3642 55.932L84.9362 58.638C86.8632 60.606 89.5692 61.836 92.5622 61.836C96.8262 61.836 100.557 59.294 102.279 55.645L102.853 55.932C101.049 59.827 97.1132 62.492 92.5622 62.492C86.2892 62.492 81.2052 57.408 81.2052 51.135ZM81.8612 51.135C81.8612 52.324 82.0662 53.431 82.3942 54.497L86.8222 51.791C86.7812 51.586 86.7812 51.34 86.7812 51.135C86.7812 47.937 89.3642 45.354 92.5622 45.354C93.7512 45.354 94.8992 45.723 95.8012 46.338L100.188 43.673C98.2612 41.664 95.5552 40.434 92.5622 40.434C86.6582 40.434 81.8612 45.231 81.8612 51.135ZM82.6402 55.112C83.0912 56.219 83.7062 57.244 84.4852 58.146L88.7902 55.522C87.8882 54.743 87.2322 53.677 86.9452 52.488L82.6402 55.112ZM87.4372 51.135V51.422L95.1862 46.707C94.4072 46.256 93.5052 46.01 92.5622 46.01C89.7332 46.01 87.4372 48.306 87.4372 51.135ZM87.5192 52.16C87.7652 53.349 88.4622 54.415 89.4052 55.153L97.6052 50.151C97.3592 48.962 96.7032 47.896 95.7602 47.117L87.5192 52.16ZM96.3752 46.789C97.2772 47.568 97.9332 48.593 98.1792 49.823L102.525 47.158C102.074 46.051 101.418 45.067 100.68 44.165L96.3752 46.789ZM109.685 32.808L110.259 33.136C106.897 38.712 104.97 45.231 104.97 52.16C104.97 59.13 106.897 65.608 110.218 71.184L109.644 71.512C106.241 65.854 104.314 59.253 104.314 52.16C104.314 45.108 106.241 38.466 109.685 32.808ZM113.867 69.093L113.293 69.421C110.218 64.337 108.496 58.433 108.496 52.16C108.496 45.928 110.259 39.983 113.334 34.899L113.908 35.227C110.915 40.229 109.152 46.01 109.152 52.16C109.152 58.31 110.874 64.091 113.867 69.093ZM118.558 33.136L119.132 32.808C122.576 38.466 124.503 45.108 124.503 52.16C124.503 59.253 122.576 65.854 119.173 71.512L118.599 71.184C121.92 65.608 123.847 59.13 123.847 52.16C123.847 45.231 121.92 38.712 118.558 33.136ZM115.524 69.421L114.95 69.093C117.943 64.091 119.665 58.31 119.665 52.16C119.665 46.01 117.902 40.229 114.909 35.227L115.483 34.899C118.558 39.983 120.321 45.928 120.321 52.16C120.321 58.433 118.599 64.337 115.524 69.421ZM142.437 44.534V33.3H143.093V44.534H153.917V33.3H154.573V44.534H159.493V33.3H160.149V62H159.493V50.766H154.573V62H153.917V50.766H143.093V62H142.437V50.766H137.517V62H136.861V33.3H137.517V44.534H142.437ZM153.917 45.19H143.093V50.11H153.917V45.19ZM142.437 50.11V45.19H137.517V50.11H142.437ZM159.493 50.11V45.19H154.573V50.11H159.493ZM174.562 62.492C168.289 62.492 163.205 57.408 163.205 51.135C163.205 44.862 168.289 39.778 174.562 39.778C180.835 39.778 185.919 44.862 185.919 51.135C185.919 57.408 180.835 62.492 174.562 62.492ZM174.562 61.836C180.466 61.836 185.263 57.039 185.263 51.135C185.263 45.231 180.466 40.434 174.562 40.434C168.658 40.434 163.861 45.231 163.861 51.135C163.861 57.039 168.658 61.836 174.562 61.836ZM174.562 56.916C171.364 56.916 168.781 54.333 168.781 51.135C168.781 47.937 171.364 45.354 174.562 45.354C177.76 45.354 180.343 47.937 180.343 51.135C180.343 54.333 177.76 56.916 174.562 56.916ZM174.562 56.26C177.391 56.26 179.687 53.964 179.687 51.135C179.687 48.306 177.391 46.01 174.562 46.01C171.733 46.01 169.437 48.306 169.437 51.135C169.437 53.964 171.733 56.26 174.562 56.26ZM198.986 62.492C192.713 62.492 187.629 57.408 187.629 51.135C187.629 44.862 192.713 39.778 198.986 39.778C205.259 39.778 210.343 44.862 210.343 51.135C210.343 57.408 205.259 62.492 198.986 62.492ZM198.986 61.836C204.89 61.836 209.687 57.039 209.687 51.135C209.687 45.231 204.89 40.434 198.986 40.434C193.082 40.434 188.285 45.231 188.285 51.135C188.285 57.039 193.082 61.836 198.986 61.836ZM198.986 56.916C195.788 56.916 193.205 54.333 193.205 51.135C193.205 47.937 195.788 45.354 198.986 45.354C202.184 45.354 204.767 47.937 204.767 51.135C204.767 54.333 202.184 56.916 198.986 56.916ZM198.986 56.26C201.815 56.26 204.111 53.964 204.111 51.135C204.111 48.306 201.815 46.01 198.986 46.01C196.157 46.01 193.861 48.306 193.861 51.135C193.861 53.964 196.157 56.26 198.986 56.26ZM223.738 56.014L228.166 62H227.346L219.515 51.422V62H218.859V31.25H219.515V51.422L228.166 40.27H228.986L223.779 46.953L226.813 50.971L235.054 40.27H235.874L227.223 51.504L235.054 62H234.234L226.772 52.078L223.738 56.014ZM213.939 31.25V62H213.283V31.25H213.939ZM226.362 51.504L223.369 47.486L220.294 51.422L223.328 55.481L226.362 51.504ZM256.575 45.764H245.71V45.108H256.575V45.764ZM256.575 51.34H245.71V50.684H256.575V51.34ZM275.942 61.344H287.463V62H269.71V33.3H270.366V55.768H275.286V33.3H275.942V55.768H287.463V56.424H275.942V61.344ZM270.366 61.344H275.286V56.424H270.366V61.344ZM290.038 62V40.27H290.694V62H290.038ZM296.27 40.27V62H295.614V40.27H296.27ZM295.614 38.138V31.25H296.27V38.138H295.614ZM290.694 31.25V38.138H290.038V31.25H290.694ZM299.259 51.135C299.259 44.862 304.343 39.778 310.616 39.778C312.461 39.778 314.183 40.229 315.741 41.008V40.27H316.397V41.377C318.693 42.648 320.456 44.944 321.317 47.322V40.27H321.973V60.155C321.973 66.428 316.93 71.512 310.616 71.512C306.721 71.512 303.277 69.503 301.186 66.51L301.76 66.182C303.728 69.011 306.967 70.856 310.616 70.856C316.602 70.856 321.317 66.1 321.317 60.155V54.907C320.497 57.285 318.652 59.663 316.315 60.934C315.905 63.722 313.568 65.936 310.616 65.936C308.771 65.936 307.09 65.034 306.024 63.722L306.598 63.394C307.5 64.501 309.017 65.28 310.616 65.28C313.076 65.28 315.085 63.599 315.618 61.344C314.101 62.041 312.379 62.492 310.616 62.492C304.343 62.492 299.259 57.408 299.259 51.135ZM299.915 51.135C299.915 57.039 304.712 61.836 310.616 61.836C312.461 61.836 314.183 61.385 315.7 60.565C315.741 60.278 315.741 59.745 315.741 59.212V53.841C314.757 55.645 312.83 56.916 310.616 56.916C307.418 56.916 304.835 54.333 304.835 51.135C304.835 47.937 307.418 45.354 310.616 45.354C312.83 45.354 314.757 46.625 315.741 48.47V41.746C314.224 40.926 312.461 40.434 310.616 40.434C304.712 40.434 299.915 45.231 299.915 51.135ZM305.491 51.135C305.491 53.964 307.787 56.26 310.616 56.26C313.486 56.26 315.741 53.964 315.741 51.135C315.741 48.306 313.486 46.01 310.616 46.01C307.787 46.01 305.491 48.306 305.491 51.135ZM316.397 42.115V60.155C319.144 58.474 321.317 55.071 321.317 51.135C321.317 47.199 319.144 43.796 316.397 42.115ZM326.113 62V31.25H326.769V46.461C327.671 44.124 329.434 42.197 331.689 41.09V31.25H332.345V40.762C333.493 40.311 334.723 40.065 336.035 40.065C341.488 40.065 345.957 44.534 345.957 49.987V62H345.301V49.987C345.301 44.903 341.119 40.721 336.035 40.721C334.723 40.721 333.493 41.008 332.345 41.5V47.691C333.124 46.461 334.477 45.641 336.035 45.641C338.413 45.641 340.381 47.609 340.381 49.987V62H339.725V49.987C339.725 47.978 338.044 46.297 336.035 46.297C334.026 46.297 332.345 47.978 332.345 49.987V62H331.689V41.828C328.778 43.386 326.769 46.461 326.769 49.987V62H326.113ZM351.466 40.926H348.227V40.27H351.466V33.3H352.122V40.27H357.042V33.3H357.698V40.27H360.937V40.926H357.698V45.846H360.937V46.502H357.698V62H357.042V46.502H352.122V62H351.466V46.502H348.227V45.846H351.466V40.926ZM357.042 40.926H352.122V45.846H357.042V40.926ZM374.857 62.492C368.543 62.492 363.459 57.367 363.459 51.135V31.25H364.115V47.363C364.976 44.985 366.739 42.689 369.035 41.418V31.25H369.691V41.008C371.249 40.229 373.012 39.778 374.857 39.778C381.13 39.778 386.214 44.862 386.214 51.135C386.214 57.408 381.13 62.492 374.857 62.492ZM374.857 56.916C371.659 56.916 369.035 54.292 369.035 51.135V42.156C366.288 43.837 364.115 47.24 364.115 51.176C364.115 57.039 368.871 61.836 374.857 61.836C380.761 61.836 385.558 57.039 385.558 51.135C385.558 45.231 380.761 40.434 374.857 40.434C373.012 40.434 371.208 40.926 369.691 41.746V48.511C370.675 46.625 372.643 45.354 374.857 45.354C378.055 45.354 380.638 47.937 380.638 51.135C380.638 54.333 378.055 56.916 374.857 56.916ZM374.857 46.01C371.987 46.01 369.691 48.306 369.691 51.135C369.691 53.964 371.987 56.26 374.857 56.26C377.686 56.26 379.982 53.964 379.982 51.135C379.982 48.306 377.686 46.01 374.857 46.01ZM408.69 40.27V62H408.034V55.809C407.132 58.146 405.369 60.073 403.114 61.18V62H402.458V61.508C401.31 61.959 400.08 62.205 398.768 62.205C393.315 62.205 388.846 57.736 388.846 52.283V40.27H389.502V52.283C389.502 57.367 393.684 61.549 398.768 61.549C400.08 61.549 401.31 61.262 402.458 60.77V54.579C401.679 55.809 400.326 56.629 398.768 56.629C396.39 56.629 394.422 54.661 394.422 52.283V40.27H395.078V52.283C395.078 54.292 396.759 55.973 398.768 55.973C400.777 55.973 402.458 54.292 402.458 52.283V40.27H403.114V60.442C406.025 58.884 408.034 55.809 408.034 52.283V40.27H408.69ZM413.534 31.25V62H412.878V31.25H413.534ZM419.11 31.25V62H418.454V31.25H419.11ZM434.235 62.492C427.921 62.492 422.837 57.367 422.837 51.135V31.25H423.493V47.363C424.354 44.985 426.117 42.689 428.413 41.418V31.25H429.069V41.008C430.627 40.229 432.39 39.778 434.235 39.778C440.508 39.778 445.592 44.862 445.592 51.135C445.592 57.408 440.508 62.492 434.235 62.492ZM434.235 56.916C431.037 56.916 428.413 54.292 428.413 51.135V42.156C425.666 43.837 423.493 47.24 423.493 51.176C423.493 57.039 428.249 61.836 434.235 61.836C440.139 61.836 444.936 57.039 444.936 51.135C444.936 45.231 440.139 40.434 434.235 40.434C432.39 40.434 430.586 40.926 429.069 41.746V48.511C430.053 46.625 432.021 45.354 434.235 45.354C437.433 45.354 440.016 47.937 440.016 51.135C440.016 54.333 437.433 56.916 434.235 56.916ZM434.235 46.01C431.365 46.01 429.069 48.306 429.069 51.135C429.069 53.964 431.365 56.26 434.235 56.26C437.064 56.26 439.36 53.964 439.36 51.135C439.36 48.306 437.064 46.01 434.235 46.01ZM479.219 33.3V51.709C479.219 57.613 474.299 62.492 468.313 62.492C462.327 62.492 457.407 57.654 457.407 51.709V33.3H458.063V51.709C458.063 57.326 462.655 61.836 468.313 61.836C473.971 61.836 478.563 57.285 478.563 51.709V33.3H479.219ZM473.643 33.3V51.709C473.643 54.497 471.224 56.916 468.313 56.916C465.402 56.916 462.983 54.497 462.983 51.709V33.3H463.639V51.709C463.639 54.169 465.73 56.26 468.313 56.26C470.896 56.26 472.987 54.169 472.987 51.709V33.3H473.643ZM482.242 46.953C482.242 42.976 485.44 39.778 489.417 39.778C492.369 39.778 494.911 41.582 496.018 44.124L495.403 44.411C494.419 42.074 492.082 40.434 489.417 40.434C485.809 40.434 482.898 43.345 482.898 46.953C482.898 50.028 484.989 52.57 487.859 53.308L489.663 53.759C490.36 53.923 490.852 54.579 490.852 55.317C490.852 56.219 490.155 56.916 489.253 56.916C488.556 56.916 487.982 56.506 487.736 55.85L488.351 55.604C488.474 55.973 488.802 56.26 489.253 56.26C489.786 56.26 490.196 55.85 490.196 55.317C490.196 54.866 489.95 54.497 489.499 54.374L487.654 53.923C484.538 53.144 482.242 50.315 482.242 46.953ZM482.652 58.187L483.267 57.9C484.251 60.237 486.547 61.836 489.253 61.836C492.861 61.836 495.772 58.925 495.772 55.317C495.772 52.242 493.681 49.7 490.811 48.962L489.007 48.511C488.269 48.306 487.818 47.691 487.818 46.953C487.818 46.051 488.515 45.354 489.417 45.354C490.114 45.354 490.688 45.805 490.893 46.42L490.319 46.666C490.196 46.297 489.827 46.01 489.417 46.01C488.884 46.01 488.474 46.42 488.474 46.953C488.474 47.404 488.72 47.773 489.171 47.896L491.016 48.347C494.173 49.126 496.428 51.955 496.428 55.317C496.428 59.294 493.23 62.492 489.253 62.492C486.301 62.492 483.759 60.729 482.652 58.187ZM498.412 51.135C498.412 44.862 503.496 39.778 509.769 39.778C514.771 39.778 518.994 42.976 520.511 47.486L507.186 55.563C507.965 56.014 508.826 56.26 509.769 56.26C511.819 56.26 513.582 55.03 514.402 53.308L515.017 53.595C514.115 55.563 512.106 56.916 509.769 56.916C508.58 56.916 507.473 56.547 506.571 55.932L502.143 58.638C504.07 60.606 506.776 61.836 509.769 61.836C514.033 61.836 517.764 59.294 519.486 55.645L520.06 55.932C518.256 59.827 514.32 62.492 509.769 62.492C503.496 62.492 498.412 57.408 498.412 51.135ZM499.068 51.135C499.068 52.324 499.273 53.431 499.601 54.497L504.029 51.791C503.988 51.586 503.988 51.34 503.988 51.135C503.988 47.937 506.571 45.354 509.769 45.354C510.958 45.354 512.106 45.723 513.008 46.338L517.395 43.673C515.468 41.664 512.762 40.434 509.769 40.434C503.865 40.434 499.068 45.231 499.068 51.135ZM499.847 55.112C500.298 56.219 500.913 57.244 501.692 58.146L505.997 55.522C505.095 54.743 504.439 53.677 504.152 52.488L499.847 55.112ZM504.644 51.135V51.422L512.393 46.707C511.614 46.256 510.712 46.01 509.769 46.01C506.94 46.01 504.644 48.306 504.644 51.135ZM504.726 52.16C504.972 53.349 505.669 54.415 506.612 55.153L514.812 50.151C514.566 48.962 513.91 47.896 512.967 47.117L504.726 52.16ZM513.582 46.789C514.484 47.568 515.14 48.593 515.386 49.823L519.732 47.158C519.281 46.051 518.625 45.067 517.887 44.165L513.582 46.789ZM521.808 41.746C521.808 36.826 525.826 32.849 530.91 32.849C534.846 32.849 538.167 35.268 539.438 38.671L538.864 38.917C537.675 35.719 534.559 33.423 530.91 33.464C526.236 33.505 522.423 37.154 522.464 41.746C522.505 45.6 525.129 48.88 528.778 49.7L531.73 50.356C533.206 50.684 534.313 52.037 534.313 53.554C534.313 55.399 532.755 56.875 530.787 56.875C529.106 56.875 527.712 55.768 527.343 54.292L527.958 54.005C528.204 55.276 529.352 56.301 530.787 56.26C532.386 56.219 533.616 55.03 533.657 53.554C533.698 52.324 532.796 51.258 531.525 50.971L528.655 50.356C524.637 49.495 521.808 45.887 521.808 41.746ZM522.218 56.629L522.833 56.342C523.981 59.581 527.097 61.877 530.787 61.836C535.461 61.795 539.274 58.146 539.233 53.554C539.192 49.7 536.568 46.42 532.919 45.6L529.967 44.944C528.491 44.616 527.384 43.263 527.384 41.746C527.384 39.901 528.942 38.425 530.91 38.425C532.591 38.425 533.985 39.491 534.313 40.967L533.739 41.254C533.493 39.983 532.304 38.999 530.91 39.04C529.311 39.081 528.081 40.27 528.04 41.746C527.999 42.976 528.901 44.042 530.172 44.329L533.042 44.944C537.06 45.805 539.889 49.413 539.889 53.554C539.889 58.474 535.871 62.451 530.787 62.451C526.81 62.451 523.489 60.032 522.218 56.629ZM544.694 40.926H541.455V40.27H544.694V33.3H545.35V40.27H550.27V33.3H550.926V40.27H554.165V40.926H550.926V45.846H554.165V46.502H550.926V62H550.27V46.502H545.35V62H544.694V46.502H541.455V45.846H544.694V40.926ZM550.27 40.926H545.35V45.846H550.27V40.926ZM572.646 42.115V60.155C575.393 58.474 577.566 55.071 577.566 51.135C577.566 47.199 575.393 43.796 572.646 42.115ZM566.865 39.778C568.71 39.778 570.432 40.229 571.99 41.008V40.27H572.646V41.377C574.942 42.648 576.705 44.944 577.566 47.322V40.27H578.222V62H577.566V54.907C576.746 57.244 574.942 59.663 572.646 60.934V62H571.99V61.262C570.432 62.041 568.71 62.492 566.865 62.492C560.592 62.492 555.508 57.408 555.508 51.135C555.508 44.862 560.592 39.778 566.865 39.778ZM566.865 61.836C568.71 61.836 570.473 61.385 571.99 60.565V53.841C571.006 55.645 569.079 56.916 566.865 56.916C563.667 56.916 561.084 54.333 561.084 51.135C561.084 47.937 563.667 45.354 566.865 45.354C569.079 45.354 571.006 46.625 571.99 48.47V41.746C570.473 40.926 568.71 40.434 566.865 40.434C560.961 40.434 556.164 45.231 556.164 51.135C556.164 57.039 560.961 61.836 566.865 61.836ZM566.865 56.26C569.735 56.26 571.99 53.964 571.99 51.135C571.99 48.306 569.735 46.01 566.865 46.01C564.036 46.01 561.74 48.306 561.74 51.135C561.74 53.964 564.036 56.26 566.865 56.26ZM584.453 40.926H581.214V40.27H584.453V33.3H585.109V40.27H590.029V33.3H590.685V40.27H593.924V40.926H590.685V45.846H593.924V46.502H590.685V62H590.029V46.502H585.109V62H584.453V46.502H581.214V45.846H584.453V40.926ZM590.029 40.926H585.109V45.846H590.029V40.926ZM595.267 51.135C595.267 44.862 600.351 39.778 606.624 39.778C611.626 39.778 615.849 42.976 617.366 47.486L604.041 55.563C604.82 56.014 605.681 56.26 606.624 56.26C608.674 56.26 610.437 55.03 611.257 53.308L611.872 53.595C610.97 55.563 608.961 56.916 606.624 56.916C605.435 56.916 604.328 56.547 603.426 55.932L598.998 58.638C600.925 60.606 603.631 61.836 606.624 61.836C610.888 61.836 614.619 59.294 616.341 55.645L616.915 55.932C615.111 59.827 611.175 62.492 606.624 62.492C600.351 62.492 595.267 57.408 595.267 51.135ZM595.923 51.135C595.923 52.324 596.128 53.431 596.456 54.497L600.884 51.791C600.843 51.586 600.843 51.34 600.843 51.135C600.843 47.937 603.426 45.354 606.624 45.354C607.813 45.354 608.961 45.723 609.863 46.338L614.25 43.673C612.323 41.664 609.617 40.434 606.624 40.434C600.72 40.434 595.923 45.231 595.923 51.135ZM596.702 55.112C597.153 56.219 597.768 57.244 598.547 58.146L602.852 55.522C601.95 54.743 601.294 53.677 601.007 52.488L596.702 55.112ZM601.499 51.135V51.422L609.248 46.707C608.469 46.256 607.567 46.01 606.624 46.01C603.795 46.01 601.499 48.306 601.499 51.135ZM601.581 52.16C601.827 53.349 602.524 54.415 603.467 55.153L611.667 50.151C611.421 48.962 610.765 47.896 609.822 47.117L601.581 52.16ZM610.437 46.789C611.339 47.568 611.995 48.593 612.241 49.823L616.587 47.158C616.136 46.051 615.48 45.067 614.742 44.165L610.437 46.789ZM623.746 32.808L624.32 33.136C620.958 38.712 619.031 45.231 619.031 52.16C619.031 59.13 620.958 65.608 624.279 71.184L623.705 71.512C620.302 65.854 618.375 59.253 618.375 52.16C618.375 45.108 620.302 38.466 623.746 32.808ZM627.928 69.093L627.354 69.421C624.279 64.337 622.557 58.433 622.557 52.16C622.557 45.928 624.32 39.983 627.395 34.899L627.969 35.227C624.976 40.229 623.213 46.01 623.213 52.16C623.213 58.31 624.935 64.091 627.928 69.093ZM632.62 33.136L633.194 32.808C636.638 38.466 638.565 45.108 638.565 52.16C638.565 59.253 636.638 65.854 633.235 71.512L632.661 71.184C635.982 65.608 637.909 59.13 637.909 52.16C637.909 45.231 635.982 38.712 632.62 33.136ZM629.586 69.421L629.012 69.093C632.005 64.091 633.727 58.31 633.727 52.16C633.727 46.01 631.964 40.229 628.971 35.227L629.545 34.899C632.62 39.983 634.383 45.928 634.383 52.16C634.383 58.433 632.661 64.337 629.586 69.421ZM656.498 44.534V33.3H657.154V44.534H667.978V33.3H668.634V44.534H673.554V33.3H674.21V62H673.554V50.766H668.634V62H667.978V50.766H657.154V62H656.498V50.766H651.578V62H650.922V33.3H651.578V44.534H656.498ZM667.978 45.19H657.154V50.11H667.978V45.19ZM656.498 50.11V45.19H651.578V50.11H656.498ZM673.554 50.11V45.19H668.634V50.11H673.554ZM688.624 62.492C682.351 62.492 677.267 57.408 677.267 51.135C677.267 44.862 682.351 39.778 688.624 39.778C694.897 39.778 699.981 44.862 699.981 51.135C699.981 57.408 694.897 62.492 688.624 62.492ZM688.624 61.836C694.528 61.836 699.325 57.039 699.325 51.135C699.325 45.231 694.528 40.434 688.624 40.434C682.72 40.434 677.923 45.231 677.923 51.135C677.923 57.039 682.72 61.836 688.624 61.836ZM688.624 56.916C685.426 56.916 682.843 54.333 682.843 51.135C682.843 47.937 685.426 45.354 688.624 45.354C691.822 45.354 694.405 47.937 694.405 51.135C694.405 54.333 691.822 56.916 688.624 56.916ZM688.624 56.26C691.453 56.26 693.749 53.964 693.749 51.135C693.749 48.306 691.453 46.01 688.624 46.01C685.795 46.01 683.499 48.306 683.499 51.135C683.499 53.964 685.795 56.26 688.624 56.26ZM713.048 62.492C706.775 62.492 701.691 57.408 701.691 51.135C701.691 44.862 706.775 39.778 713.048 39.778C719.321 39.778 724.405 44.862 724.405 51.135C724.405 57.408 719.321 62.492 713.048 62.492ZM713.048 61.836C718.952 61.836 723.749 57.039 723.749 51.135C723.749 45.231 718.952 40.434 713.048 40.434C707.144 40.434 702.347 45.231 702.347 51.135C702.347 57.039 707.144 61.836 713.048 61.836ZM713.048 56.916C709.85 56.916 707.267 54.333 707.267 51.135C707.267 47.937 709.85 45.354 713.048 45.354C716.246 45.354 718.829 47.937 718.829 51.135C718.829 54.333 716.246 56.916 713.048 56.916ZM713.048 56.26C715.877 56.26 718.173 53.964 718.173 51.135C718.173 48.306 715.877 46.01 713.048 46.01C710.219 46.01 707.923 48.306 707.923 51.135C707.923 53.964 710.219 56.26 713.048 56.26ZM737.799 56.014L742.227 62H741.407L733.576 51.422V62H732.92V31.25H733.576V51.422L742.227 40.27H743.047L737.84 46.953L740.874 50.971L749.115 40.27H749.935L741.284 51.504L749.115 62H748.295L740.833 52.078L737.799 56.014ZM728 31.25V62H727.344V31.25H728ZM740.423 51.504L737.43 47.486L734.355 51.422L737.389 55.481L740.423 51.504ZM770.636 45.764H759.771V45.108H770.636V45.764ZM770.636 51.34H759.771V50.684H770.636V51.34ZM790.004 61.344H801.525V62H783.772V33.3H784.428V55.768H789.348V33.3H790.004V55.768H801.525V56.424H790.004V61.344ZM784.428 61.344H789.348V56.424H784.428V61.344ZM804.099 62V40.27H804.755V62H804.099ZM810.331 40.27V62H809.675V40.27H810.331ZM809.675 38.138V31.25H810.331V38.138H809.675ZM804.755 31.25V38.138H804.099V31.25H804.755ZM813.32 51.135C813.32 44.862 818.404 39.778 824.677 39.778C826.522 39.778 828.244 40.229 829.802 41.008V40.27H830.458V41.377C832.754 42.648 834.517 44.944 835.378 47.322V40.27H836.034V60.155C836.034 66.428 830.991 71.512 824.677 71.512C820.782 71.512 817.338 69.503 815.247 66.51L815.821 66.182C817.789 69.011 821.028 70.856 824.677 70.856C830.663 70.856 835.378 66.1 835.378 60.155V54.907C834.558 57.285 832.713 59.663 830.376 60.934C829.966 63.722 827.629 65.936 824.677 65.936C822.832 65.936 821.151 65.034 820.085 63.722L820.659 63.394C821.561 64.501 823.078 65.28 824.677 65.28C827.137 65.28 829.146 63.599 829.679 61.344C828.162 62.041 826.44 62.492 824.677 62.492C818.404 62.492 813.32 57.408 813.32 51.135ZM813.976 51.135C813.976 57.039 818.773 61.836 824.677 61.836C826.522 61.836 828.244 61.385 829.761 60.565C829.802 60.278 829.802 59.745 829.802 59.212V53.841C828.818 55.645 826.891 56.916 824.677 56.916C821.479 56.916 818.896 54.333 818.896 51.135C818.896 47.937 821.479 45.354 824.677 45.354C826.891 45.354 828.818 46.625 829.802 48.47V41.746C828.285 40.926 826.522 40.434 824.677 40.434C818.773 40.434 813.976 45.231 813.976 51.135ZM819.552 51.135C819.552 53.964 821.848 56.26 824.677 56.26C827.547 56.26 829.802 53.964 829.802 51.135C829.802 48.306 827.547 46.01 824.677 46.01C821.848 46.01 819.552 48.306 819.552 51.135ZM830.458 42.115V60.155C833.205 58.474 835.378 55.071 835.378 51.135C835.378 47.199 833.205 43.796 830.458 42.115ZM840.174 62V31.25H840.83V46.461C841.732 44.124 843.495 42.197 845.75 41.09V31.25H846.406V40.762C847.554 40.311 848.784 40.065 850.096 40.065C855.549 40.065 860.018 44.534 860.018 49.987V62H859.362V49.987C859.362 44.903 855.18 40.721 850.096 40.721C848.784 40.721 847.554 41.008 846.406 41.5V47.691C847.185 46.461 848.538 45.641 850.096 45.641C852.474 45.641 854.442 47.609 854.442 49.987V62H853.786V49.987C853.786 47.978 852.105 46.297 850.096 46.297C848.087 46.297 846.406 47.978 846.406 49.987V62H845.75V41.828C842.839 43.386 840.83 46.461 840.83 49.987V62H840.174ZM865.527 40.926H862.288V40.27H865.527V33.3H866.183V40.27H871.103V33.3H871.759V40.27H874.998V40.926H871.759V45.846H874.998V46.502H871.759V62H871.103V46.502H866.183V62H865.527V46.502H862.288V45.846H865.527V40.926ZM871.103 40.926H866.183V45.846H871.103V40.926ZM888.918 62.492C882.604 62.492 877.52 57.367 877.52 51.135V31.25H878.176V47.363C879.037 44.985 880.8 42.689 883.096 41.418V31.25H883.752V41.008C885.31 40.229 887.073 39.778 888.918 39.778C895.191 39.778 900.275 44.862 900.275 51.135C900.275 57.408 895.191 62.492 888.918 62.492ZM888.918 56.916C885.72 56.916 883.096 54.292 883.096 51.135V42.156C880.349 43.837 878.176 47.24 878.176 51.176C878.176 57.039 882.932 61.836 888.918 61.836C894.822 61.836 899.619 57.039 899.619 51.135C899.619 45.231 894.822 40.434 888.918 40.434C887.073 40.434 885.269 40.926 883.752 41.746V48.511C884.736 46.625 886.704 45.354 888.918 45.354C892.116 45.354 894.699 47.937 894.699 51.135C894.699 54.333 892.116 56.916 888.918 56.916ZM888.918 46.01C886.048 46.01 883.752 48.306 883.752 51.135C883.752 53.964 886.048 56.26 888.918 56.26C891.747 56.26 894.043 53.964 894.043 51.135C894.043 48.306 891.747 46.01 888.918 46.01ZM922.752 40.27V62H922.096V55.809C921.194 58.146 919.431 60.073 917.176 61.18V62H916.52V61.508C915.372 61.959 914.142 62.205 912.83 62.205C907.377 62.205 902.908 57.736 902.908 52.283V40.27H903.564V52.283C903.564 57.367 907.746 61.549 912.83 61.549C914.142 61.549 915.372 61.262 916.52 60.77V54.579C915.741 55.809 914.388 56.629 912.83 56.629C910.452 56.629 908.484 54.661 908.484 52.283V40.27H909.14V52.283C909.14 54.292 910.821 55.973 912.83 55.973C914.839 55.973 916.52 54.292 916.52 52.283V40.27H917.176V60.442C920.087 58.884 922.096 55.809 922.096 52.283V40.27H922.752ZM927.595 31.25V62H926.939V31.25H927.595ZM933.171 31.25V62H932.515V31.25H933.171ZM948.296 62.492C941.982 62.492 936.898 57.367 936.898 51.135V31.25H937.554V47.363C938.415 44.985 940.178 42.689 942.474 41.418V31.25H943.13V41.008C944.688 40.229 946.451 39.778 948.296 39.778C954.569 39.778 959.653 44.862 959.653 51.135C959.653 57.408 954.569 62.492 948.296 62.492ZM948.296 56.916C945.098 56.916 942.474 54.292 942.474 51.135V42.156C939.727 43.837 937.554 47.24 937.554 51.176C937.554 57.039 942.31 61.836 948.296 61.836C954.2 61.836 958.997 57.039 958.997 51.135C958.997 45.231 954.2 40.434 948.296 40.434C946.451 40.434 944.647 40.926 943.13 41.746V48.511C944.114 46.625 946.082 45.354 948.296 45.354C951.494 45.354 954.077 47.937 954.077 51.135C954.077 54.333 951.494 56.916 948.296 56.916ZM948.296 46.01C945.426 46.01 943.13 48.306 943.13 51.135C943.13 53.964 945.426 56.26 948.296 56.26C951.125 56.26 953.421 53.964 953.421 51.135C953.421 48.306 951.125 46.01 948.296 46.01ZM984.232 33.3V51.709C984.232 57.613 979.312 62.492 973.326 62.492C967.34 62.492 962.42 57.654 962.42 51.709V33.3H963.076V51.709C963.076 57.326 967.668 61.836 973.326 61.836C978.984 61.836 983.576 57.285 983.576 51.709V33.3H984.232ZM978.656 33.3V51.709C978.656 54.497 976.237 56.916 973.326 56.916C970.415 56.916 967.996 54.497 967.996 51.709V33.3H968.652V51.709C968.652 54.169 970.743 56.26 973.326 56.26C975.909 56.26 978 54.169 978 51.709V33.3H978.656ZM987.255 46.953C987.255 42.976 990.453 39.778 994.43 39.778C997.382 39.778 999.924 41.582 1001.03 44.124L1000.42 44.411C999.432 42.074 997.095 40.434 994.43 40.434C990.822 40.434 987.911 43.345 987.911 46.953C987.911 50.028 990.002 52.57 992.872 53.308L994.676 53.759C995.373 53.923 995.865 54.579 995.865 55.317C995.865 56.219 995.168 56.916 994.266 56.916C993.569 56.916 992.995 56.506 992.749 55.85L993.364 55.604C993.487 55.973 993.815 56.26 994.266 56.26C994.799 56.26 995.209 55.85 995.209 55.317C995.209 54.866 994.963 54.497 994.512 54.374L992.667 53.923C989.551 53.144 987.255 50.315 987.255 46.953ZM987.665 58.187L988.28 57.9C989.264 60.237 991.56 61.836 994.266 61.836C997.874 61.836 1000.78 58.925 1000.78 55.317C1000.78 52.242 998.694 49.7 995.824 48.962L994.02 48.511C993.282 48.306 992.831 47.691 992.831 46.953C992.831 46.051 993.528 45.354 994.43 45.354C995.127 45.354 995.701 45.805 995.906 46.42L995.332 46.666C995.209 46.297 994.84 46.01 994.43 46.01C993.897 46.01 993.487 46.42 993.487 46.953C993.487 47.404 993.733 47.773 994.184 47.896L996.029 48.347C999.186 49.126 1001.44 51.955 1001.44 55.317C1001.44 59.294 998.243 62.492 994.266 62.492C991.314 62.492 988.772 60.729 987.665 58.187ZM1003.42 51.135C1003.42 44.862 1008.51 39.778 1014.78 39.778C1019.78 39.778 1024.01 42.976 1025.52 47.486L1012.2 55.563C1012.98 56.014 1013.84 56.26 1014.78 56.26C1016.83 56.26 1018.59 55.03 1019.41 53.308L1020.03 53.595C1019.13 55.563 1017.12 56.916 1014.78 56.916C1013.59 56.916 1012.49 56.547 1011.58 55.932L1007.16 58.638C1009.08 60.606 1011.79 61.836 1014.78 61.836C1019.05 61.836 1022.78 59.294 1024.5 55.645L1025.07 55.932C1023.27 59.827 1019.33 62.492 1014.78 62.492C1008.51 62.492 1003.42 57.408 1003.42 51.135ZM1004.08 51.135C1004.08 52.324 1004.29 53.431 1004.61 54.497L1009.04 51.791C1009 51.586 1009 51.34 1009 51.135C1009 47.937 1011.58 45.354 1014.78 45.354C1015.97 45.354 1017.12 45.723 1018.02 46.338L1022.41 43.673C1020.48 41.664 1017.77 40.434 1014.78 40.434C1008.88 40.434 1004.08 45.231 1004.08 51.135ZM1004.86 55.112C1005.31 56.219 1005.93 57.244 1006.7 58.146L1011.01 55.522C1010.11 54.743 1009.45 53.677 1009.16 52.488L1004.86 55.112ZM1009.66 51.135V51.422L1017.41 46.707C1016.63 46.256 1015.72 46.01 1014.78 46.01C1011.95 46.01 1009.66 48.306 1009.66 51.135ZM1009.74 52.16C1009.98 53.349 1010.68 54.415 1011.62 55.153L1019.82 50.151C1019.58 48.962 1018.92 47.896 1017.98 47.117L1009.74 52.16ZM1018.59 46.789C1019.5 47.568 1020.15 48.593 1020.4 49.823L1024.74 47.158C1024.29 46.051 1023.64 45.067 1022.9 44.165L1018.59 46.789ZM1026.82 41.746C1026.82 36.826 1030.84 32.849 1035.92 32.849C1039.86 32.849 1043.18 35.268 1044.45 38.671L1043.88 38.917C1042.69 35.719 1039.57 33.423 1035.92 33.464C1031.25 33.505 1027.44 37.154 1027.48 41.746C1027.52 45.6 1030.14 48.88 1033.79 49.7L1036.74 50.356C1038.22 50.684 1039.33 52.037 1039.33 53.554C1039.33 55.399 1037.77 56.875 1035.8 56.875C1034.12 56.875 1032.72 55.768 1032.36 54.292L1032.97 54.005C1033.22 55.276 1034.36 56.301 1035.8 56.26C1037.4 56.219 1038.63 55.03 1038.67 53.554C1038.71 52.324 1037.81 51.258 1036.54 50.971L1033.67 50.356C1029.65 49.495 1026.82 45.887 1026.82 41.746ZM1027.23 56.629L1027.85 56.342C1028.99 59.581 1032.11 61.877 1035.8 61.836C1040.47 61.795 1044.29 58.146 1044.25 53.554C1044.2 49.7 1041.58 46.42 1037.93 45.6L1034.98 44.944C1033.5 44.616 1032.4 43.263 1032.4 41.746C1032.4 39.901 1033.95 38.425 1035.92 38.425C1037.6 38.425 1039 39.491 1039.33 40.967L1038.75 41.254C1038.51 39.983 1037.32 38.999 1035.92 39.04C1034.32 39.081 1033.09 40.27 1033.05 41.746C1033.01 42.976 1033.91 44.042 1035.18 44.329L1038.05 44.944C1042.07 45.805 1044.9 49.413 1044.9 53.554C1044.9 58.474 1040.88 62.451 1035.8 62.451C1031.82 62.451 1028.5 60.032 1027.23 56.629ZM1049.71 40.926H1046.47V40.27H1049.71V33.3H1050.36V40.27H1055.28V33.3H1055.94V40.27H1059.18V40.926H1055.94V45.846H1059.18V46.502H1055.94V62H1055.28V46.502H1050.36V62H1049.71V46.502H1046.47V45.846H1049.71V40.926ZM1055.28 40.926H1050.36V45.846H1055.28V40.926ZM1077.66 42.115V60.155C1080.41 58.474 1082.58 55.071 1082.58 51.135C1082.58 47.199 1080.41 43.796 1077.66 42.115ZM1071.88 39.778C1073.72 39.778 1075.44 40.229 1077 41.008V40.27H1077.66V41.377C1079.95 42.648 1081.72 44.944 1082.58 47.322V40.27H1083.23V62H1082.58V54.907C1081.76 57.244 1079.95 59.663 1077.66 60.934V62H1077V61.262C1075.44 62.041 1073.72 62.492 1071.88 62.492C1065.6 62.492 1060.52 57.408 1060.52 51.135C1060.52 44.862 1065.6 39.778 1071.88 39.778ZM1071.88 61.836C1073.72 61.836 1075.49 61.385 1077 60.565V53.841C1076.02 55.645 1074.09 56.916 1071.88 56.916C1068.68 56.916 1066.1 54.333 1066.1 51.135C1066.1 47.937 1068.68 45.354 1071.88 45.354C1074.09 45.354 1076.02 46.625 1077 48.47V41.746C1075.49 40.926 1073.72 40.434 1071.88 40.434C1065.97 40.434 1061.18 45.231 1061.18 51.135C1061.18 57.039 1065.97 61.836 1071.88 61.836ZM1071.88 56.26C1074.75 56.26 1077 53.964 1077 51.135C1077 48.306 1074.75 46.01 1071.88 46.01C1069.05 46.01 1066.75 48.306 1066.75 51.135C1066.75 53.964 1069.05 56.26 1071.88 56.26ZM1089.47 40.926H1086.23V40.27H1089.47V33.3H1090.12V40.27H1095.04V33.3H1095.7V40.27H1098.94V40.926H1095.7V45.846H1098.94V46.502H1095.7V62H1095.04V46.502H1090.12V62H1089.47V46.502H1086.23V45.846H1089.47V40.926ZM1095.04 40.926H1090.12V45.846H1095.04V40.926ZM1100.28 51.135C1100.28 44.862 1105.36 39.778 1111.64 39.778C1116.64 39.778 1120.86 42.976 1122.38 47.486L1109.05 55.563C1109.83 56.014 1110.69 56.26 1111.64 56.26C1113.69 56.26 1115.45 55.03 1116.27 53.308L1116.88 53.595C1115.98 55.563 1113.97 56.916 1111.64 56.916C1110.45 56.916 1109.34 56.547 1108.44 55.932L1104.01 58.638C1105.94 60.606 1108.64 61.836 1111.64 61.836C1115.9 61.836 1119.63 59.294 1121.35 55.645L1121.93 55.932C1120.12 59.827 1116.19 62.492 1111.64 62.492C1105.36 62.492 1100.28 57.408 1100.28 51.135ZM1100.94 51.135C1100.94 52.324 1101.14 53.431 1101.47 54.497L1105.9 51.791C1105.86 51.586 1105.86 51.34 1105.86 51.135C1105.86 47.937 1108.44 45.354 1111.64 45.354C1112.83 45.354 1113.97 45.723 1114.88 46.338L1119.26 43.673C1117.34 41.664 1114.63 40.434 1111.64 40.434C1105.73 40.434 1100.94 45.231 1100.94 51.135ZM1101.71 55.112C1102.17 56.219 1102.78 57.244 1103.56 58.146L1107.86 55.522C1106.96 54.743 1106.31 53.677 1106.02 52.488L1101.71 55.112ZM1106.51 51.135V51.422L1114.26 46.707C1113.48 46.256 1112.58 46.01 1111.64 46.01C1108.81 46.01 1106.51 48.306 1106.51 51.135ZM1106.59 52.16C1106.84 53.349 1107.54 54.415 1108.48 55.153L1116.68 50.151C1116.43 48.962 1115.78 47.896 1114.83 47.117L1106.59 52.16ZM1115.45 46.789C1116.35 47.568 1117.01 48.593 1117.25 49.823L1121.6 47.158C1121.15 46.051 1120.49 45.067 1119.75 44.165L1115.45 46.789ZM1128.76 32.808L1129.33 33.136C1125.97 38.712 1124.04 45.231 1124.04 52.16C1124.04 59.13 1125.97 65.608 1129.29 71.184L1128.72 71.512C1125.31 65.854 1123.39 59.253 1123.39 52.16C1123.39 45.108 1125.31 38.466 1128.76 32.808ZM1132.94 69.093L1132.37 69.421C1129.29 64.337 1127.57 58.433 1127.57 52.16C1127.57 45.928 1129.33 39.983 1132.41 34.899L1132.98 35.227C1129.99 40.229 1128.23 46.01 1128.23 52.16C1128.23 58.31 1129.95 64.091 1132.94 69.093ZM1137.63 33.136L1138.21 32.808C1141.65 38.466 1143.58 45.108 1143.58 52.16C1143.58 59.253 1141.65 65.854 1138.25 71.512L1137.67 71.184C1140.99 65.608 1142.92 59.13 1142.92 52.16C1142.92 45.231 1140.99 38.712 1137.63 33.136ZM1134.6 69.421L1134.02 69.093C1137.02 64.091 1138.74 58.31 1138.74 52.16C1138.74 46.01 1136.98 40.229 1133.98 35.227L1134.56 34.899C1137.63 39.983 1139.4 45.928 1139.4 52.16C1139.4 58.433 1137.67 64.337 1134.6 69.421ZM1161.51 44.534V33.3H1162.17V44.534H1172.99V33.3H1173.65V44.534H1178.57V33.3H1179.22V62H1178.57V50.766H1173.65V62H1172.99V50.766H1162.17V62H1161.51V50.766H1156.59V62H1155.94V33.3H1156.59V44.534H1161.51ZM1172.99 45.19H1162.17V50.11H1172.99V45.19ZM1161.51 50.11V45.19H1156.59V50.11H1161.51ZM1178.57 50.11V45.19H1173.65V50.11H1178.57ZM1193.64 62.492C1187.36 62.492 1182.28 57.408 1182.28 51.135C1182.28 44.862 1187.36 39.778 1193.64 39.778C1199.91 39.778 1204.99 44.862 1204.99 51.135C1204.99 57.408 1199.91 62.492 1193.64 62.492ZM1193.64 61.836C1199.54 61.836 1204.34 57.039 1204.34 51.135C1204.34 45.231 1199.54 40.434 1193.64 40.434C1187.73 40.434 1182.94 45.231 1182.94 51.135C1182.94 57.039 1187.73 61.836 1193.64 61.836ZM1193.64 56.916C1190.44 56.916 1187.86 54.333 1187.86 51.135C1187.86 47.937 1190.44 45.354 1193.64 45.354C1196.83 45.354 1199.42 47.937 1199.42 51.135C1199.42 54.333 1196.83 56.916 1193.64 56.916ZM1193.64 56.26C1196.47 56.26 1198.76 53.964 1198.76 51.135C1198.76 48.306 1196.47 46.01 1193.64 46.01C1190.81 46.01 1188.51 48.306 1188.51 51.135C1188.51 53.964 1190.81 56.26 1193.64 56.26ZM1218.06 62.492C1211.79 62.492 1206.7 57.408 1206.7 51.135C1206.7 44.862 1211.79 39.778 1218.06 39.778C1224.33 39.778 1229.42 44.862 1229.42 51.135C1229.42 57.408 1224.33 62.492 1218.06 62.492ZM1218.06 61.836C1223.96 61.836 1228.76 57.039 1228.76 51.135C1228.76 45.231 1223.96 40.434 1218.06 40.434C1212.16 40.434 1207.36 45.231 1207.36 51.135C1207.36 57.039 1212.16 61.836 1218.06 61.836ZM1218.06 56.916C1214.86 56.916 1212.28 54.333 1212.28 51.135C1212.28 47.937 1214.86 45.354 1218.06 45.354C1221.26 45.354 1223.84 47.937 1223.84 51.135C1223.84 54.333 1221.26 56.916 1218.06 56.916ZM1218.06 56.26C1220.89 56.26 1223.19 53.964 1223.19 51.135C1223.19 48.306 1220.89 46.01 1218.06 46.01C1215.23 46.01 1212.94 48.306 1212.94 51.135C1212.94 53.964 1215.23 56.26 1218.06 56.26ZM1242.81 56.014L1247.24 62H1246.42L1238.59 51.422V62H1237.93V31.25H1238.59V51.422L1247.24 40.27H1248.06L1242.85 46.953L1245.89 50.971L1254.13 40.27H1254.95L1246.3 51.504L1254.13 62H1253.31L1245.85 52.078L1242.81 56.014ZM1233.01 31.25V62H1232.36V31.25H1233.01ZM1245.44 51.504L1242.44 47.486L1239.37 51.422L1242.4 55.481L1245.44 51.504ZM1275.65 45.764H1264.78V45.108H1275.65V45.764ZM1275.65 51.34H1264.78V50.684H1275.65V51.34ZM1295.02 61.344H1306.54V62H1288.78V33.3H1289.44V55.768H1294.36V33.3H1295.02V55.768H1306.54V56.424H1295.02V61.344ZM1289.44 61.344H1294.36V56.424H1289.44V61.344ZM1309.11 62V40.27H1309.77V62H1309.11ZM1315.34 40.27V62H1314.69V40.27H1315.34ZM1314.69 38.138V31.25H1315.34V38.138H1314.69ZM1309.77 31.25V38.138H1309.11V31.25H1309.77ZM1318.33 51.135C1318.33 44.862 1323.42 39.778 1329.69 39.778C1331.54 39.778 1333.26 40.229 1334.82 41.008V40.27H1335.47V41.377C1337.77 42.648 1339.53 44.944 1340.39 47.322V40.27H1341.05V60.155C1341.05 66.428 1336 71.512 1329.69 71.512C1325.8 71.512 1322.35 69.503 1320.26 66.51L1320.83 66.182C1322.8 69.011 1326.04 70.856 1329.69 70.856C1335.68 70.856 1340.39 66.1 1340.39 60.155V54.907C1339.57 57.285 1337.73 59.663 1335.39 60.934C1334.98 63.722 1332.64 65.936 1329.69 65.936C1327.85 65.936 1326.16 65.034 1325.1 63.722L1325.67 63.394C1326.57 64.501 1328.09 65.28 1329.69 65.28C1332.15 65.28 1334.16 63.599 1334.69 61.344C1333.18 62.041 1331.45 62.492 1329.69 62.492C1323.42 62.492 1318.33 57.408 1318.33 51.135ZM1318.99 51.135C1318.99 57.039 1323.79 61.836 1329.69 61.836C1331.54 61.836 1333.26 61.385 1334.77 60.565C1334.82 60.278 1334.82 59.745 1334.82 59.212V53.841C1333.83 55.645 1331.9 56.916 1329.69 56.916C1326.49 56.916 1323.91 54.333 1323.91 51.135C1323.91 47.937 1326.49 45.354 1329.69 45.354C1331.9 45.354 1333.83 46.625 1334.82 48.47V41.746C1333.3 40.926 1331.54 40.434 1329.69 40.434C1323.79 40.434 1318.99 45.231 1318.99 51.135ZM1324.57 51.135C1324.57 53.964 1326.86 56.26 1329.69 56.26C1332.56 56.26 1334.82 53.964 1334.82 51.135C1334.82 48.306 1332.56 46.01 1329.69 46.01C1326.86 46.01 1324.57 48.306 1324.57 51.135ZM1335.47 42.115V60.155C1338.22 58.474 1340.39 55.071 1340.39 51.135C1340.39 47.199 1338.22 43.796 1335.47 42.115ZM1345.19 62V31.25H1345.84V46.461C1346.75 44.124 1348.51 42.197 1350.76 41.09V31.25H1351.42V40.762C1352.57 40.311 1353.8 40.065 1355.11 40.065C1360.56 40.065 1365.03 44.534 1365.03 49.987V62H1364.38V49.987C1364.38 44.903 1360.19 40.721 1355.11 40.721C1353.8 40.721 1352.57 41.008 1351.42 41.5V47.691C1352.2 46.461 1353.55 45.641 1355.11 45.641C1357.49 45.641 1359.46 47.609 1359.46 49.987V62H1358.8V49.987C1358.8 47.978 1357.12 46.297 1355.11 46.297C1353.1 46.297 1351.42 47.978 1351.42 49.987V62H1350.76V41.828C1347.85 43.386 1345.84 46.461 1345.84 49.987V62H1345.19ZM1370.54 40.926H1367.3V40.27H1370.54V33.3H1371.2V40.27H1376.12V33.3H1376.77V40.27H1380.01V40.926H1376.77V45.846H1380.01V46.502H1376.77V62H1376.12V46.502H1371.2V62H1370.54V46.502H1367.3V45.846H1370.54V40.926ZM1376.12 40.926H1371.2V45.846H1376.12V40.926ZM1393.93 62.492C1387.62 62.492 1382.53 57.367 1382.53 51.135V31.25H1383.19V47.363C1384.05 44.985 1385.81 42.689 1388.11 41.418V31.25H1388.77V41.008C1390.32 40.229 1392.09 39.778 1393.93 39.778C1400.2 39.778 1405.29 44.862 1405.29 51.135C1405.29 57.408 1400.2 62.492 1393.93 62.492ZM1393.93 56.916C1390.73 56.916 1388.11 54.292 1388.11 51.135V42.156C1385.36 43.837 1383.19 47.24 1383.19 51.176C1383.19 57.039 1387.95 61.836 1393.93 61.836C1399.84 61.836 1404.63 57.039 1404.63 51.135C1404.63 45.231 1399.84 40.434 1393.93 40.434C1392.09 40.434 1390.28 40.926 1388.77 41.746V48.511C1389.75 46.625 1391.72 45.354 1393.93 45.354C1397.13 45.354 1399.71 47.937 1399.71 51.135C1399.71 54.333 1397.13 56.916 1393.93 56.916ZM1393.93 46.01C1391.06 46.01 1388.77 48.306 1388.77 51.135C1388.77 53.964 1391.06 56.26 1393.93 56.26C1396.76 56.26 1399.06 53.964 1399.06 51.135C1399.06 48.306 1396.76 46.01 1393.93 46.01ZM1427.76 40.27V62H1427.11V55.809C1426.21 58.146 1424.44 60.073 1422.19 61.18V62H1421.53V61.508C1420.38 61.959 1419.15 62.205 1417.84 62.205C1412.39 62.205 1407.92 57.736 1407.92 52.283V40.27H1408.58V52.283C1408.58 57.367 1412.76 61.549 1417.84 61.549C1419.15 61.549 1420.38 61.262 1421.53 60.77V54.579C1420.75 55.809 1419.4 56.629 1417.84 56.629C1415.46 56.629 1413.5 54.661 1413.5 52.283V40.27H1414.15V52.283C1414.15 54.292 1415.83 55.973 1417.84 55.973C1419.85 55.973 1421.53 54.292 1421.53 52.283V40.27H1422.19V60.442C1425.1 58.884 1427.11 55.809 1427.11 52.283V40.27H1427.76ZM1432.61 31.25V62H1431.95V31.25H1432.61ZM1438.18 31.25V62H1437.53V31.25H1438.18ZM1453.31 62.492C1446.99 62.492 1441.91 57.367 1441.91 51.135V31.25H1442.57V47.363C1443.43 44.985 1445.19 42.689 1447.49 41.418V31.25H1448.14V41.008C1449.7 40.229 1451.46 39.778 1453.31 39.778C1459.58 39.778 1464.67 44.862 1464.67 51.135C1464.67 57.408 1459.58 62.492 1453.31 62.492ZM1453.31 56.916C1450.11 56.916 1447.49 54.292 1447.49 51.135V42.156C1444.74 43.837 1442.57 47.24 1442.57 51.176C1442.57 57.039 1447.32 61.836 1453.31 61.836C1459.21 61.836 1464.01 57.039 1464.01 51.135C1464.01 45.231 1459.21 40.434 1453.31 40.434C1451.46 40.434 1449.66 40.926 1448.14 41.746V48.511C1449.13 46.625 1451.09 45.354 1453.31 45.354C1456.51 45.354 1459.09 47.937 1459.09 51.135C1459.09 54.333 1456.51 56.916 1453.31 56.916ZM1453.31 46.01C1450.44 46.01 1448.14 48.306 1448.14 51.135C1448.14 53.964 1450.44 56.26 1453.31 56.26C1456.14 56.26 1458.43 53.964 1458.43 51.135C1458.43 48.306 1456.14 46.01 1453.31 46.01ZM1489.24 33.3V51.709C1489.24 57.613 1484.32 62.492 1478.34 62.492C1472.35 62.492 1467.43 57.654 1467.43 51.709V33.3H1468.09V51.709C1468.09 57.326 1472.68 61.836 1478.34 61.836C1484 61.836 1488.59 57.285 1488.59 51.709V33.3H1489.24ZM1483.67 33.3V51.709C1483.67 54.497 1481.25 56.916 1478.34 56.916C1475.43 56.916 1473.01 54.497 1473.01 51.709V33.3H1473.66V51.709C1473.66 54.169 1475.76 56.26 1478.34 56.26C1480.92 56.26 1483.01 54.169 1483.01 51.709V33.3H1483.67ZM1492.27 46.953C1492.27 42.976 1495.47 39.778 1499.44 39.778C1502.39 39.778 1504.94 41.582 1506.04 44.124L1505.43 44.411C1504.44 42.074 1502.11 40.434 1499.44 40.434C1495.83 40.434 1492.92 43.345 1492.92 46.953C1492.92 50.028 1495.01 52.57 1497.88 53.308L1499.69 53.759C1500.39 53.923 1500.88 54.579 1500.88 55.317C1500.88 56.219 1500.18 56.916 1499.28 56.916C1498.58 56.916 1498.01 56.506 1497.76 55.85L1498.38 55.604C1498.5 55.973 1498.83 56.26 1499.28 56.26C1499.81 56.26 1500.22 55.85 1500.22 55.317C1500.22 54.866 1499.98 54.497 1499.52 54.374L1497.68 53.923C1494.56 53.144 1492.27 50.315 1492.27 46.953ZM1492.68 58.187L1493.29 57.9C1494.28 60.237 1496.57 61.836 1499.28 61.836C1502.89 61.836 1505.8 58.925 1505.8 55.317C1505.8 52.242 1503.71 49.7 1500.84 48.962L1499.03 48.511C1498.29 48.306 1497.84 47.691 1497.84 46.953C1497.84 46.051 1498.54 45.354 1499.44 45.354C1500.14 45.354 1500.71 45.805 1500.92 46.42L1500.34 46.666C1500.22 46.297 1499.85 46.01 1499.44 46.01C1498.91 46.01 1498.5 46.42 1498.5 46.953C1498.5 47.404 1498.75 47.773 1499.2 47.896L1501.04 48.347C1504.2 49.126 1506.45 51.955 1506.45 55.317C1506.45 59.294 1503.26 62.492 1499.28 62.492C1496.33 62.492 1493.78 60.729 1492.68 58.187ZM1508.44 51.135C1508.44 44.862 1513.52 39.778 1519.79 39.778C1524.8 39.778 1529.02 42.976 1530.54 47.486L1517.21 55.563C1517.99 56.014 1518.85 56.26 1519.79 56.26C1521.84 56.26 1523.61 55.03 1524.43 53.308L1525.04 53.595C1524.14 55.563 1522.13 56.916 1519.79 56.916C1518.61 56.916 1517.5 56.547 1516.6 55.932L1512.17 58.638C1514.1 60.606 1516.8 61.836 1519.79 61.836C1524.06 61.836 1527.79 59.294 1529.51 55.645L1530.09 55.932C1528.28 59.827 1524.35 62.492 1519.79 62.492C1513.52 62.492 1508.44 57.408 1508.44 51.135ZM1509.09 51.135C1509.09 52.324 1509.3 53.431 1509.63 54.497L1514.05 51.791C1514.01 51.586 1514.01 51.34 1514.01 51.135C1514.01 47.937 1516.6 45.354 1519.79 45.354C1520.98 45.354 1522.13 45.723 1523.03 46.338L1527.42 43.673C1525.49 41.664 1522.79 40.434 1519.79 40.434C1513.89 40.434 1509.09 45.231 1509.09 51.135ZM1509.87 55.112C1510.32 56.219 1510.94 57.244 1511.72 58.146L1516.02 55.522C1515.12 54.743 1514.46 53.677 1514.18 52.488L1509.87 55.112ZM1514.67 51.135V51.422L1522.42 46.707C1521.64 46.256 1520.74 46.01 1519.79 46.01C1516.97 46.01 1514.67 48.306 1514.67 51.135ZM1514.75 52.16C1515 53.349 1515.69 54.415 1516.64 55.153L1524.84 50.151C1524.59 48.962 1523.94 47.896 1522.99 47.117L1514.75 52.16ZM1523.61 46.789C1524.51 47.568 1525.17 48.593 1525.41 49.823L1529.76 47.158C1529.31 46.051 1528.65 45.067 1527.91 44.165L1523.61 46.789ZM1531.83 41.746C1531.83 36.826 1535.85 32.849 1540.93 32.849C1544.87 32.849 1548.19 35.268 1549.46 38.671L1548.89 38.917C1547.7 35.719 1544.58 33.423 1540.93 33.464C1536.26 33.505 1532.45 37.154 1532.49 41.746C1532.53 45.6 1535.15 48.88 1538.8 49.7L1541.75 50.356C1543.23 50.684 1544.34 52.037 1544.34 53.554C1544.34 55.399 1542.78 56.875 1540.81 56.875C1539.13 56.875 1537.74 55.768 1537.37 54.292L1537.98 54.005C1538.23 55.276 1539.38 56.301 1540.81 56.26C1542.41 56.219 1543.64 55.03 1543.68 53.554C1543.72 52.324 1542.82 51.258 1541.55 50.971L1538.68 50.356C1534.66 49.495 1531.83 45.887 1531.83 41.746ZM1532.24 56.629L1532.86 56.342C1534.01 59.581 1537.12 61.877 1540.81 61.836C1545.49 61.795 1549.3 58.146 1549.26 53.554C1549.22 49.7 1546.59 46.42 1542.94 45.6L1539.99 44.944C1538.52 44.616 1537.41 43.263 1537.41 41.746C1537.41 39.901 1538.97 38.425 1540.93 38.425C1542.62 38.425 1544.01 39.491 1544.34 40.967L1543.76 41.254C1543.52 39.983 1542.33 38.999 1540.93 39.04C1539.34 39.081 1538.11 40.27 1538.06 41.746C1538.02 42.976 1538.93 44.042 1540.2 44.329L1543.07 44.944C1547.08 45.805 1549.91 49.413 1549.91 53.554C1549.91 58.474 1545.9 62.451 1540.81 62.451C1536.83 62.451 1533.51 60.032 1532.24 56.629ZM1554.72 40.926H1551.48V40.27H1554.72V33.3H1555.38V40.27H1560.3V33.3H1560.95V40.27H1564.19V40.926H1560.95V45.846H1564.19V46.502H1560.95V62H1560.3V46.502H1555.38V62H1554.72V46.502H1551.48V45.846H1554.72V40.926ZM1560.3 40.926H1555.38V45.846H1560.3V40.926ZM1582.67 42.115V60.155C1585.42 58.474 1587.59 55.071 1587.59 51.135C1587.59 47.199 1585.42 43.796 1582.67 42.115ZM1576.89 39.778C1578.74 39.778 1580.46 40.229 1582.02 41.008V40.27H1582.67V41.377C1584.97 42.648 1586.73 44.944 1587.59 47.322V40.27H1588.25V62H1587.59V54.907C1586.77 57.244 1584.97 59.663 1582.67 60.934V62H1582.02V61.262C1580.46 62.041 1578.74 62.492 1576.89 62.492C1570.62 62.492 1565.53 57.408 1565.53 51.135C1565.53 44.862 1570.62 39.778 1576.89 39.778ZM1576.89 61.836C1578.74 61.836 1580.5 61.385 1582.02 60.565V53.841C1581.03 55.645 1579.1 56.916 1576.89 56.916C1573.69 56.916 1571.11 54.333 1571.11 51.135C1571.11 47.937 1573.69 45.354 1576.89 45.354C1579.1 45.354 1581.03 46.625 1582.02 48.47V41.746C1580.5 40.926 1578.74 40.434 1576.89 40.434C1570.99 40.434 1566.19 45.231 1566.19 51.135C1566.19 57.039 1570.99 61.836 1576.89 61.836ZM1576.89 56.26C1579.76 56.26 1582.02 53.964 1582.02 51.135C1582.02 48.306 1579.76 46.01 1576.89 46.01C1574.06 46.01 1571.77 48.306 1571.77 51.135C1571.77 53.964 1574.06 56.26 1576.89 56.26ZM1594.48 40.926H1591.24V40.27H1594.48V33.3H1595.13V40.27H1600.05V33.3H1600.71V40.27H1603.95V40.926H1600.71V45.846H1603.95V46.502H1600.71V62H1600.05V46.502H1595.13V62H1594.48V46.502H1591.24V45.846H1594.48V40.926ZM1600.05 40.926H1595.13V45.846H1600.05V40.926ZM1605.29 51.135C1605.29 44.862 1610.38 39.778 1616.65 39.778C1621.65 39.778 1625.87 42.976 1627.39 47.486L1614.07 55.563C1614.85 56.014 1615.71 56.26 1616.65 56.26C1618.7 56.26 1620.46 55.03 1621.28 53.308L1621.9 53.595C1621 55.563 1618.99 56.916 1616.65 56.916C1615.46 56.916 1614.35 56.547 1613.45 55.932L1609.02 58.638C1610.95 60.606 1613.66 61.836 1616.65 61.836C1620.91 61.836 1624.64 59.294 1626.37 55.645L1626.94 55.932C1625.14 59.827 1621.2 62.492 1616.65 62.492C1610.38 62.492 1605.29 57.408 1605.29 51.135ZM1605.95 51.135C1605.95 52.324 1606.15 53.431 1606.48 54.497L1610.91 51.791C1610.87 51.586 1610.87 51.34 1610.87 51.135C1610.87 47.937 1613.45 45.354 1616.65 45.354C1617.84 45.354 1618.99 45.723 1619.89 46.338L1624.28 43.673C1622.35 41.664 1619.64 40.434 1616.65 40.434C1610.75 40.434 1605.95 45.231 1605.95 51.135ZM1606.73 55.112C1607.18 56.219 1607.79 57.244 1608.57 58.146L1612.88 55.522C1611.98 54.743 1611.32 53.677 1611.03 52.488L1606.73 55.112ZM1611.52 51.135V51.422L1619.27 46.707C1618.49 46.256 1617.59 46.01 1616.65 46.01C1613.82 46.01 1611.52 48.306 1611.52 51.135ZM1611.61 52.16C1611.85 53.349 1612.55 54.415 1613.49 55.153L1621.69 50.151C1621.45 48.962 1620.79 47.896 1619.85 47.117L1611.61 52.16ZM1620.46 46.789C1621.36 47.568 1622.02 48.593 1622.27 49.823L1626.61 47.158C1626.16 46.051 1625.51 45.067 1624.77 44.165L1620.46 46.789ZM1633.77 32.808L1634.35 33.136C1630.98 38.712 1629.06 45.231 1629.06 52.16C1629.06 59.13 1630.98 65.608 1634.3 71.184L1633.73 71.512C1630.33 65.854 1628.4 59.253 1628.4 52.16C1628.4 45.108 1630.33 38.466 1633.77 32.808ZM1637.95 69.093L1637.38 69.421C1634.3 64.337 1632.58 58.433 1632.58 52.16C1632.58 45.928 1634.35 39.983 1637.42 34.899L1637.99 35.227C1635 40.229 1633.24 46.01 1633.24 52.16C1633.24 58.31 1634.96 64.091 1637.95 69.093ZM1642.65 33.136L1643.22 32.808C1646.66 38.466 1648.59 45.108 1648.59 52.16C1648.59 59.253 1646.66 65.854 1643.26 71.512L1642.69 71.184C1646.01 65.608 1647.93 59.13 1647.93 52.16C1647.93 45.231 1646.01 38.712 1642.65 33.136ZM1639.61 69.421L1639.04 69.093C1642.03 64.091 1643.75 58.31 1643.75 52.16C1643.75 46.01 1641.99 40.229 1639 35.227L1639.57 34.899C1642.65 39.983 1644.41 45.928 1644.41 52.16C1644.41 58.433 1642.69 64.337 1639.61 69.421ZM1666.52 44.534V33.3H1667.18V44.534H1678V33.3H1678.66V44.534H1683.58V33.3H1684.24V62H1683.58V50.766H1678.66V62H1678V50.766H1667.18V62H1666.52V50.766H1661.6V62H1660.95V33.3H1661.6V44.534H1666.52ZM1678 45.19H1667.18V50.11H1678V45.19ZM1666.52 50.11V45.19H1661.6V50.11H1666.52ZM1683.58 50.11V45.19H1678.66V50.11H1683.58ZM1698.65 62.492C1692.38 62.492 1687.29 57.408 1687.29 51.135C1687.29 44.862 1692.38 39.778 1698.65 39.778C1704.92 39.778 1710.01 44.862 1710.01 51.135C1710.01 57.408 1704.92 62.492 1698.65 62.492ZM1698.65 61.836C1704.55 61.836 1709.35 57.039 1709.35 51.135C1709.35 45.231 1704.55 40.434 1698.65 40.434C1692.75 40.434 1687.95 45.231 1687.95 51.135C1687.95 57.039 1692.75 61.836 1698.65 61.836ZM1698.65 56.916C1695.45 56.916 1692.87 54.333 1692.87 51.135C1692.87 47.937 1695.45 45.354 1698.65 45.354C1701.85 45.354 1704.43 47.937 1704.43 51.135C1704.43 54.333 1701.85 56.916 1698.65 56.916ZM1698.65 56.26C1701.48 56.26 1703.77 53.964 1703.77 51.135C1703.77 48.306 1701.48 46.01 1698.65 46.01C1695.82 46.01 1693.52 48.306 1693.52 51.135C1693.52 53.964 1695.82 56.26 1698.65 56.26ZM1723.07 62.492C1716.8 62.492 1711.72 57.408 1711.72 51.135C1711.72 44.862 1716.8 39.778 1723.07 39.778C1729.35 39.778 1734.43 44.862 1734.43 51.135C1734.43 57.408 1729.35 62.492 1723.07 62.492ZM1723.07 61.836C1728.98 61.836 1733.77 57.039 1733.77 51.135C1733.77 45.231 1728.98 40.434 1723.07 40.434C1717.17 40.434 1712.37 45.231 1712.37 51.135C1712.37 57.039 1717.17 61.836 1723.07 61.836ZM1723.07 56.916C1719.87 56.916 1717.29 54.333 1717.29 51.135C1717.29 47.937 1719.87 45.354 1723.07 45.354C1726.27 45.354 1728.85 47.937 1728.85 51.135C1728.85 54.333 1726.27 56.916 1723.07 56.916ZM1723.07 56.26C1725.9 56.26 1728.2 53.964 1728.2 51.135C1728.2 48.306 1725.9 46.01 1723.07 46.01C1720.24 46.01 1717.95 48.306 1717.95 51.135C1717.95 53.964 1720.24 56.26 1723.07 56.26ZM1747.82 56.014L1752.25 62H1751.43L1743.6 51.422V62H1742.95V31.25H1743.6V51.422L1752.25 40.27H1753.07L1747.87 46.953L1750.9 50.971L1759.14 40.27H1759.96L1751.31 51.504L1759.14 62H1758.32L1750.86 52.078L1747.82 56.014ZM1738.03 31.25V62H1737.37V31.25H1738.03ZM1750.45 51.504L1747.46 47.486L1744.38 51.422L1747.41 55.481L1750.45 51.504ZM1780.66 45.764H1769.8V45.108H1780.66V45.764ZM1780.66 51.34H1769.8V50.684H1780.66V51.34ZM1800.03 61.344H1811.55V62H1793.8V33.3H1794.45V55.768H1799.37V33.3H1800.03V55.768H1811.55V56.424H1800.03V61.344ZM1794.45 61.344H1799.37V56.424H1794.45V61.344ZM1814.12 62V40.27H1814.78V62H1814.12ZM1820.36 40.27V62H1819.7V40.27H1820.36ZM1819.7 38.138V31.25H1820.36V38.138H1819.7ZM1814.78 31.25V38.138H1814.12V31.25H1814.78ZM1823.35 51.135C1823.35 44.862 1828.43 39.778 1834.7 39.778C1836.55 39.778 1838.27 40.229 1839.83 41.008V40.27H1840.48V41.377C1842.78 42.648 1844.54 44.944 1845.4 47.322V40.27H1846.06V60.155C1846.06 66.428 1841.02 71.512 1834.7 71.512C1830.81 71.512 1827.36 69.503 1825.27 66.51L1825.85 66.182C1827.81 69.011 1831.05 70.856 1834.7 70.856C1840.69 70.856 1845.4 66.1 1845.4 60.155V54.907C1844.58 57.285 1842.74 59.663 1840.4 60.934C1839.99 63.722 1837.65 65.936 1834.7 65.936C1832.86 65.936 1831.18 65.034 1830.11 63.722L1830.68 63.394C1831.59 64.501 1833.1 65.28 1834.7 65.28C1837.16 65.28 1839.17 63.599 1839.7 61.344C1838.19 62.041 1836.47 62.492 1834.7 62.492C1828.43 62.492 1823.35 57.408 1823.35 51.135ZM1824 51.135C1824 57.039 1828.8 61.836 1834.7 61.836C1836.55 61.836 1838.27 61.385 1839.79 60.565C1839.83 60.278 1839.83 59.745 1839.83 59.212V53.841C1838.84 55.645 1836.92 56.916 1834.7 56.916C1831.5 56.916 1828.92 54.333 1828.92 51.135C1828.92 47.937 1831.5 45.354 1834.7 45.354C1836.92 45.354 1838.84 46.625 1839.83 48.47V41.746C1838.31 40.926 1836.55 40.434 1834.7 40.434C1828.8 40.434 1824 45.231 1824 51.135ZM1829.58 51.135C1829.58 53.964 1831.87 56.26 1834.7 56.26C1837.57 56.26 1839.83 53.964 1839.83 51.135C1839.83 48.306 1837.57 46.01 1834.7 46.01C1831.87 46.01 1829.58 48.306 1829.58 51.135ZM1840.48 42.115V60.155C1843.23 58.474 1845.4 55.071 1845.4 51.135C1845.4 47.199 1843.23 43.796 1840.48 42.115ZM1850.2 62V31.25H1850.86V46.461C1851.76 44.124 1853.52 42.197 1855.78 41.09V31.25H1856.43V40.762C1857.58 40.311 1858.81 40.065 1860.12 40.065C1865.57 40.065 1870.04 44.534 1870.04 49.987V62H1869.39V49.987C1869.39 44.903 1865.21 40.721 1860.12 40.721C1858.81 40.721 1857.58 41.008 1856.43 41.5V47.691C1857.21 46.461 1858.56 45.641 1860.12 45.641C1862.5 45.641 1864.47 47.609 1864.47 49.987V62H1863.81V49.987C1863.81 47.978 1862.13 46.297 1860.12 46.297C1858.11 46.297 1856.43 47.978 1856.43 49.987V62H1855.78V41.828C1852.86 43.386 1850.86 46.461 1850.86 49.987V62H1850.2ZM1875.55 40.926H1872.31V40.27H1875.55V33.3H1876.21V40.27H1881.13V33.3H1881.78V40.27H1885.02V40.926H1881.78V45.846H1885.02V46.502H1881.78V62H1881.13V46.502H1876.21V62H1875.55V46.502H1872.31V45.846H1875.55V40.926ZM1881.13 40.926H1876.21V45.846H1881.13V40.926ZM1898.94 62.492C1892.63 62.492 1887.55 57.367 1887.55 51.135V31.25H1888.2V47.363C1889.06 44.985 1890.83 42.689 1893.12 41.418V31.25H1893.78V41.008C1895.34 40.229 1897.1 39.778 1898.94 39.778C1905.22 39.778 1910.3 44.862 1910.3 51.135C1910.3 57.408 1905.22 62.492 1898.94 62.492ZM1898.94 56.916C1895.75 56.916 1893.12 54.292 1893.12 51.135V42.156C1890.37 43.837 1888.2 47.24 1888.2 51.176C1888.2 57.039 1892.96 61.836 1898.94 61.836C1904.85 61.836 1909.64 57.039 1909.64 51.135C1909.64 45.231 1904.85 40.434 1898.94 40.434C1897.1 40.434 1895.29 40.926 1893.78 41.746V48.511C1894.76 46.625 1896.73 45.354 1898.94 45.354C1902.14 45.354 1904.72 47.937 1904.72 51.135C1904.72 54.333 1902.14 56.916 1898.94 56.916ZM1898.94 46.01C1896.07 46.01 1893.78 48.306 1893.78 51.135C1893.78 53.964 1896.07 56.26 1898.94 56.26C1901.77 56.26 1904.07 53.964 1904.07 51.135C1904.07 48.306 1901.77 46.01 1898.94 46.01ZM1932.78 40.27V62H1932.12V55.809C1931.22 58.146 1929.46 60.073 1927.2 61.18V62H1926.55V61.508C1925.4 61.959 1924.17 62.205 1922.86 62.205C1917.4 62.205 1912.93 57.736 1912.93 52.283V40.27H1913.59V52.283C1913.59 57.367 1917.77 61.549 1922.86 61.549C1924.17 61.549 1925.4 61.262 1926.55 60.77V54.579C1925.77 55.809 1924.41 56.629 1922.86 56.629C1920.48 56.629 1918.51 54.661 1918.51 52.283V40.27H1919.17V52.283C1919.17 54.292 1920.85 55.973 1922.86 55.973C1924.86 55.973 1926.55 54.292 1926.55 52.283V40.27H1927.2V60.442C1930.11 58.884 1932.12 55.809 1932.12 52.283V40.27H1932.78ZM1937.62 31.25V62H1936.96V31.25H1937.62ZM1943.2 31.25V62H1942.54V31.25H1943.2ZM1958.32 62.492C1952.01 62.492 1946.92 57.367 1946.92 51.135V31.25H1947.58V47.363C1948.44 44.985 1950.2 42.689 1952.5 41.418V31.25H1953.16V41.008C1954.71 40.229 1956.48 39.778 1958.32 39.778C1964.59 39.778 1969.68 44.862 1969.68 51.135C1969.68 57.408 1964.59 62.492 1958.32 62.492ZM1958.32 56.916C1955.12 56.916 1952.5 54.292 1952.5 51.135V42.156C1949.75 43.837 1947.58 47.24 1947.58 51.176C1947.58 57.039 1952.34 61.836 1958.32 61.836C1964.23 61.836 1969.02 57.039 1969.02 51.135C1969.02 45.231 1964.23 40.434 1958.32 40.434C1956.48 40.434 1954.67 40.926 1953.16 41.746V48.511C1954.14 46.625 1956.11 45.354 1958.32 45.354C1961.52 45.354 1964.1 47.937 1964.1 51.135C1964.1 54.333 1961.52 56.916 1958.32 56.916ZM1958.32 46.01C1955.45 46.01 1953.16 48.306 1953.16 51.135C1953.16 53.964 1955.45 56.26 1958.32 56.26C1961.15 56.26 1963.45 53.964 1963.45 51.135C1963.45 48.306 1961.15 46.01 1958.32 46.01Z" fill="white"/>
</g>
<defs>
<clipPath id="clip0_443_857">
<rect width="1940" height="343" fill="white"/>
</clipPath>
</defs>
</svg>
